<?xml version="1.0" standalone="no"?>
<!DOCTYPE svg PUBLIC "-//W3C//DTD SVG 20010904//EN"
 "http://www.w3.org/TR/2001/REC-SVG-20010904/DTD/svg10.dtd">
<svg version="1.0" xmlns="http://www.w3.org/2000/svg"
 width="700.000000pt" height="700.000000pt" viewBox="0 0 700.000000 700.000000"
 preserveAspectRatio="xMidYMid meet">
<metadata>
Created by potrace 1.11, written by Peter Selinger 2001-2013
</metadata>
<g transform="translate(0.000000,700.000000) scale(0.100000,-0.100000)"
fill="#000000" stroke="none">
<path d="M910 4911 l0 -198 83 -6 c45 -4 119 -7 163 -7 45 0 95 -3 112 -6 l30
-6 6 -112 c3 -61 8 -236 10 -388 l5 -278 -204 0 -205 0 0 -205 0 -205 -400 0
-400 0 0 -410 0 -410 400 0 400 0 0 -205 0 -205 395 0 395 0 0 -190 0 -190
215 0 215 0 0 190 0 190 1370 0 1370 0 0 -175 0 -175 215 0 215 0 0 175 0 175
395 0 395 0 0 205 0 205 400 0 400 0 0 410 0 410 -400 0 -400 0 0 205 0 205
-205 0 -205 0 5 133 c3 72 8 155 11 183 5 48 7 52 36 58 17 3 70 6 118 6 48 0
121 3 163 6 l77 7 0 198 0 199 -216 0 -216 0 7 -127 c3 -71 8 -156 11 -190 l6
-63 -201 0 -201 0 0 -205 0 -205 -195 0 -195 0 0 205 0 205 -395 0 -395 0 0
190 0 190 -600 0 -600 0 0 -190 0 -190 -395 0 -395 0 0 -205 0 -205 -195 0
-195 0 0 394 0 394 -197 7 -196 7 6 199 7 199 -215 0 -215 0 0 -199z m1200
-1616 l0 -185 -195 0 -195 0 0 185 0 185 195 0 195 0 0 -185z m3170 0 l0 -185
-195 0 -195 0 0 185 0 185 195 0 195 0 0 -185z m-1596 -287 c3 -40 8 -126 10
-190 l5 -118 -199 0 -199 0 5 118 c2 64 7 150 10 190 l6 72 178 0 178 0 6 -72z"/>
</g>
</svg>
