<?xml version="1.0" encoding="UTF-8" standalone="no"?>
<!-- Created with Inkscape (http://www.inkscape.org/) -->

<svg xmlns="http://www.w3.org/2000/svg" height="256" width="256" version="1.1" id="loading">
  <path style="fill:#00adee" d="m 62.000001,180.0003 0,-7 -14.5,0 -14.5,0 0,-7.5 0,-7.5 -14.5,0 -14.4999997,0 0,-15 0,-15 14.4999997,0 14.5,0 0,-7.5 0,-7.5 7.527457,0 7.527456,0 -0.277456,-14.25 -0.277457,-14.25 -7.25,-0.29381 -7.25,-0.29381 0,-7.45619 0,-7.45619 8.067094,0 8.067095,0 -0.238153,7.25 -0.238153,7.25 7.171059,0.29381 7.171058,0.29381 0,14.45619 0,14.45619 7,0 7,0 0,-7.5 0,-7.5 14.499997,0 14.500002,0 0,-7 0,-7 22,0 22,0 0,7 0,7 14.5,0 14.5,0 0,7.5 0,7.5 7,0 7,0 0,-7.5 0,-7.5 7.25,0.002 7.25,0.002 -0.33206,-7.00225 -0.33206,-7.00235 8.08206,0 8.08206,0 0,7.45619 0,7.45619 -7.25,0.29381 -7.25,0.29381 -0.29569,6.75 -0.29569,6.75 7.54569,0 7.54569,0 0,7.5 0,7.5 14.5,0 14.5,0 0,15 0,15 -14.5,0 -14.5,0 0,7.5 0,7.5 -14.5,0 -14.5,0 0,6.5 0,6.5 -8,0 -8,0 0,-6.5 0,-6.5 -50,0 -49.999999,0 0,7 0,7 -8,0 -8,0 0,-7 z m 72.795689,-29.75 -0.29569,-6.75 -6.5,0 -6.5,0 -0.29569,6.75 -0.29569,6.75 7.09138,0 7.09138,0 -0.29569,-6.75 z m -57.795689,-14.75 0,-6.5 -7,0 -7,0 0,6.5 0,6.5 7,0 7,0 0,-6.5 z m 115.999999,0 0,-6.5 -7,0 -7,0 0,6.5 0,6.5 7,0 7,0 0,-6.5 z"/>
</svg>
